<svg width="37" height="26" viewBox="0 0 37 26" fill="none" xmlns="http://www.w3.org/2000/svg">
<path d="M22.7421 9.47421L21.8355 9.47566L0.9881 9.50911L0.98836 9.67033L0.989759 10.538L0.998435 15.9443L1.00016 17.0399L21.8476 17.0065L22.7542 17.005L22.7557 17.9117L22.7557 17.9232L22.7557 17.9346L22.7557 17.946L22.7557 17.9573L22.7558 17.9685L22.7558 17.9797L22.7558 17.9907L22.7558 18.0018L22.7558 18.0127L22.7558 18.0236L22.7559 18.0344L22.7559 18.0451L22.7559 18.0558L22.7559 18.0664L22.7559 18.077L22.756 18.0875L22.756 18.0979L22.756 18.1082L22.756 18.1185L22.756 18.1287L22.756 18.1388L22.7561 18.1489L22.7561 18.1589L22.7561 18.1689L22.7561 18.1788L22.7561 18.1886L22.7561 18.1984L22.7561 18.208L22.7562 18.2177L22.7562 18.2272L22.7562 18.2367L22.7562 18.2462L22.7562 18.2556L22.7562 18.2649L22.7563 18.2741L22.7563 18.2833L22.7563 18.2925L22.7563 18.3015L22.7563 18.3105L22.7563 18.3195L22.7563 18.3284L22.7564 18.3372L22.7564 18.3459L22.7564 18.3546L22.7564 18.3633L22.7564 18.3719L22.7564 18.3804L22.7564 18.3889L22.7564 18.3973L22.7565 18.4056L22.7565 18.4139L22.7565 18.4221L22.7565 18.4303L22.7565 18.4384L22.7565 18.4465L22.7565 18.4545L22.7566 18.4624L22.7566 18.4703L22.7566 18.4781L22.7566 18.4859L22.7566 18.4936L22.7566 18.5013L22.7566 18.5089L22.7566 18.5164L22.7567 18.5239L22.7567 18.5314L22.7567 18.5388L22.7567 18.5461L22.7567 18.5534L22.7567 18.5606L22.7567 18.5678L22.7567 18.5749L22.7567 18.5819L22.7568 18.589L22.7568 18.5959L22.7568 18.6028L22.7568 18.6097L22.7568 18.6165L22.7568 18.6232L22.7568 18.6299L22.7568 18.6365L22.7568 18.6431L22.7569 18.6497L22.7569 18.6562L22.7569 18.6626L22.7569 18.669L22.7569 18.6753L22.7569 18.6816L22.7569 18.6879L22.7569 18.6941L22.7569 18.7002L22.7569 18.7063L22.757 18.7124L22.757 18.7184L22.757 18.7243L22.757 18.7302L22.757 18.7361L22.757 18.7419L22.757 18.7476L22.757 18.7533L22.757 18.759L22.757 18.7646L22.757 18.7702L22.7571 18.7757L22.7571 18.7812L22.7571 18.7866L22.7571 18.792L22.7571 18.7974L22.7571 18.8027L22.7571 18.8079L22.7571 18.8131L22.7571 18.8183L22.7571 18.8234L22.7571 18.8285L22.7571 18.8335L22.7572 18.8385L22.7572 18.8435L22.7572 18.8484L22.7572 18.8533L22.7572 18.8581L22.7572 18.8629L22.7572 18.8676L22.7572 18.8723L22.7572 18.877L22.7572 18.8816L22.7572 18.8861L22.7572 18.8907L22.7572 18.8952L22.7573 18.8996L22.7573 18.904L22.7573 18.9084L22.7573 18.9127L22.7573 18.917L22.7573 18.9213L22.7573 18.9255L22.7573 18.9297L22.7573 18.9338L22.7573 18.9379L22.7573 18.942L22.7573 18.946L22.7573 18.95L22.7573 18.954L22.7573 18.9579L22.7574 18.9618L22.7574 18.9656L22.7574 18.9694L22.7574 18.9732L22.7574 18.9769L22.7574 18.9806L22.7574 18.9843L22.7574 18.9879L22.7574 18.9915L22.7574 18.9951L22.7574 18.9986L22.7574 19.0021L22.7574 19.0056L22.7574 19.009L22.7574 19.0124L22.7574 19.0158L22.7574 19.0191L22.7575 19.0224L22.7575 19.0256L22.7575 19.0289L22.7575 19.0321L22.7575 19.0352L22.7575 19.0384L22.7575 19.0415L22.7575 19.0446L22.7575 19.0476L22.7575 19.0506L22.7575 19.0536L22.7575 19.0565L22.7575 19.0595L22.7575 19.0624L22.7575 19.0652L22.7575 19.0681L22.7575 19.0709L22.7575 19.0736L22.7575 19.0764L22.7575 19.0791L22.7575 19.0818L22.7576 19.0845L22.7576 19.0871L22.7576 19.0897L22.7576 19.0923L22.7576 19.0949L22.7576 19.0974L22.7576 19.0999L22.7576 19.1024L22.7576 19.1048L22.7576 19.1073L22.7576 19.1097L22.7576 19.112L22.7576 19.1144L22.7576 19.1167L22.7576 19.119L22.7576 19.1213L22.7576 19.1236L22.7576 19.1258L22.7576 19.128L22.7576 19.1302L22.7576 19.1323L22.7576 19.1345L22.7576 19.1366L22.7576 19.1387L22.7576 19.1408L22.7576 19.1428L22.7576 19.1449L22.7577 19.1469L22.7577 19.1488L22.7577 19.1508L22.7577 19.1528L22.7577 19.1547L22.7577 19.1566L22.7577 19.1585L22.7577 19.1604L22.7577 19.1622L22.7577 19.164L22.7577 19.1658L22.7577 19.1676L22.7577 19.1694L22.7577 19.1712L22.7577 19.1729L22.7577 19.1746L22.7577 19.1763L22.7577 19.178L22.7577 19.1797L22.7577 19.1813L22.7577 19.1829L22.7577 19.1846L22.7577 19.1862L22.7577 19.1878L22.7577 19.1893L22.7577 19.1909L22.7577 19.1924L22.7577 19.1939L22.7577 19.1954L22.7577 19.1969L22.7577 19.1984L22.7577 19.1999L22.7577 19.2013L22.7577 19.2028L22.7577 19.2042L22.7577 19.2056L22.7577 19.207L22.7578 19.2084L22.7578 19.2098L22.7578 19.2112L22.7578 19.2125L22.7578 19.2139L22.7578 19.2152L22.7578 19.2165L22.7578 19.2178L22.7578 19.2191L22.7578 19.2204L22.7578 19.2217L22.7578 19.2229L22.7578 19.2242L22.7578 19.2254L22.7578 19.2267L22.7578 19.2279L22.7578 19.2291L22.7578 19.2303L22.7578 19.2315L22.7578 19.2327L22.7578 19.2339L22.7578 19.2351L22.7578 19.2363L22.7578 19.2374L22.7578 19.2386L22.7578 19.2398L22.7578 19.2409L22.7578 19.242L22.7578 19.2432L22.7578 19.2443L22.7578 19.2454L22.7578 19.2465L22.7578 19.2477L22.7578 19.2488L22.7578 19.2499L22.7578 19.251L22.7578 19.2521L22.7578 19.2532L22.7578 19.2542L22.7578 19.2553L22.7578 19.2564L22.7578 19.2575L22.7578 19.2586L22.7578 19.2596L22.7578 19.2607L22.7578 19.2618L22.7578 19.2628L22.7578 19.2639L22.7578 19.265L22.7578 19.266L22.7578 19.2671L22.7578 19.2682L22.7578 19.2692L22.7579 19.2703L22.7579 19.2713L22.7579 19.2724L22.7579 19.2735L22.7579 19.2745L22.7579 19.2756L22.7579 19.2767L22.7579 19.2777L22.7579 19.2788L22.7579 19.2799L22.7579 19.281L22.7579 19.282L22.7579 19.2831L22.7579 19.2842L22.7579 19.2853L22.7579 19.2864L22.7579 19.2875L22.7579 19.2886L22.7579 19.2897L22.7579 19.2908L22.7579 19.2919L22.7579 19.293L22.7579 19.2941L22.7579 19.2952L22.7579 19.2964L22.7579 19.2975L22.7579 19.2987L22.7579 19.2998L22.7579 19.301L22.7579 19.3021L22.7579 19.3033L22.7579 19.3045L22.7579 19.3057L22.7579 19.3069L22.7579 19.3081L22.7579 19.3093L22.7579 19.3105L22.7579 19.3117L22.7579 19.313L22.7579 19.3142L22.7579 19.3154L22.7579 19.3167L22.7579 19.318L22.7579 19.3193L22.7579 19.3206L22.7579 19.3219L22.7579 19.3232L22.7579 19.3245L22.7579 19.3258L22.7579 19.3272L22.7579 19.3286L22.7579 19.3299L22.7579 19.3313L22.758 19.3327L22.758 19.3341L22.758 19.3355L22.758 19.337L22.758 19.3384L22.758 19.3399L22.758 19.3414L22.758 19.3429L22.758 19.3444L22.758 19.3459L22.758 19.3474L22.758 19.349L22.758 19.3505L22.758 19.3521L22.758 19.3537L22.758 19.3553L22.758 19.357L22.758 19.3586L22.758 19.3603L22.758 19.3619L22.758 19.3636L22.758 19.3654L22.758 19.3671L22.758 19.3688L22.758 19.3706L22.758 19.3724L22.758 19.3742L22.758 19.376L22.758 19.3779L22.758 19.3797L22.758 19.3816L22.758 19.3835L22.758 19.3854L22.758 19.3874L22.758 19.3893L22.758 19.3913L22.758 19.3933L22.7581 19.3953L22.7581 19.3974L22.7581 19.3994L22.7581 19.4015L22.7581 19.4036L22.7581 19.4058L22.7581 19.4079L22.7581 19.4101L22.7581 19.4123L22.7581 19.4145L22.7581 19.4168L22.7581 19.4191L22.7581 19.4214L22.7581 19.4237L22.7581 19.426L22.7581 19.4284L22.7581 19.4308L22.7581 19.4332L22.7581 19.4357L22.7581 19.4381L22.7581 19.4406L22.7581 19.4431L22.7581 19.4457L22.7581 19.4483L22.7581 19.4509L22.7581 19.4535L22.7581 19.4562L22.7582 19.4588L22.7582 19.4616L22.7582 19.4643L22.7582 19.4671L22.7582 19.4699L22.7582 19.4727L22.7582 19.4755L22.7582 19.4784L22.7582 19.4813L22.7582 19.4843L22.7582 19.4873L22.7582 19.4903L22.7582 19.4933L22.7582 19.4964L22.7582 19.4995L22.7582 19.5026L22.7582 19.5057L22.7582 19.5089L22.7582 19.5121L22.7582 19.5154L22.7582 19.5187L22.7583 19.522L22.7583 19.5254L22.7583 19.5287L22.7583 19.5322L22.7583 19.5356L22.7583 19.5391L22.7583 19.5426L22.7583 19.5462L22.7583 19.5497L22.7583 19.5534L22.7583 19.557L22.7583 19.5607L22.7583 19.5644L22.7583 19.5682L22.7583 19.572L22.7583 19.5758L22.7583 19.5797L22.7584 19.5836L22.7584 19.5875L22.7584 19.5915L22.7584 19.5955L22.7584 19.5996L22.7584 19.6037L22.7584 19.6078L22.7584 19.612L22.7584 19.6162L22.7584 19.6204L22.7584 19.6247L22.7584 19.629L22.7584 19.6334L22.7584 19.6378L22.7584 19.6422L22.7585 19.6467L22.7585 19.6512L22.7585 19.6558L22.7585 19.6604L22.7585 19.6651L22.7585 19.6697L22.7585 19.6745L22.7585 19.6792L22.7585 19.684L22.7585 19.6889L22.7585 19.6938L22.7585 19.6987L22.7585 19.7037L22.7586 19.7087L22.7586 19.7138L22.7586 19.7189L22.7586 19.7241L22.7586 19.7293L22.7586 19.7345L22.7586 19.7398L22.7586 19.7451L22.7586 19.7505L22.7586 19.7559L22.7586 19.7614L22.7586 19.7669L22.7587 19.7725L22.7587 19.7781L22.7587 19.7837L22.7587 19.7894L22.7587 19.7952L22.7587 19.801L22.7587 19.8068L22.7587 19.8127L22.7587 19.8186L22.7587 19.8246L22.7587 19.8306L22.7588 19.8367L22.7588 19.8428L22.7588 19.849L22.7588 19.8552L22.7588 19.8615L22.7588 19.8678L22.7588 19.8742L22.7588 19.8806L22.7643 23.318L22.7421 9.47421ZM22.7421 9.47421L22.7407 8.56754L22.7407 8.55818L22.7406 8.54887L22.7406 8.53961L22.7406 8.5304L22.7406 8.52125L22.7406 8.51214L22.7406 8.50308L22.7406 8.49407L22.7405 8.48512L22.7405 8.47621L22.7405 8.46735L22.7405 8.45854L22.7405 8.44978L22.7405 8.44107L22.7405 8.43241L22.7404 8.42379L22.7404 8.41523L22.7404 8.40671L22.7404 8.39824L22.7404 8.38982L22.7404 8.38145L22.7404 8.37312L22.7404 8.36484L22.7403 8.35661L22.7403 8.34842L22.7403 8.34028L22.7403 8.33219L22.7403 8.32415L22.7403 8.31615L22.7403 8.30819L22.7402 8.30029L22.7402 8.29242L22.7402 8.28461L22.7402 8.27684L22.7402 8.26911L22.7402 8.26143L22.7402 8.25379L22.7402 8.2462L22.7401 8.23865L22.7401 8.23115L22.7401 8.22369L22.7401 8.21628L22.7401 8.20891L22.7401 8.20158L22.7401 8.19429L22.7401 8.18705L22.7401 8.17985L22.74 8.1727L22.74 8.16559L22.74 8.15852L22.74 8.15149L22.74 8.1445L22.74 8.13756L22.74 8.13066L22.74 8.1238L22.74 8.11698L22.7399 8.1102L22.7399 8.10346L22.7399 8.09677L22.7399 8.09011L22.7399 8.0835L22.7399 8.07692L22.7399 8.07039L22.7399 8.06389L22.7399 8.05744L22.7398 8.05103L22.7398 8.04465L22.7398 8.03831L22.7398 8.03202L22.7398 8.02576L22.7398 8.01954L22.7398 8.01336L22.7398 8.00722L22.7398 8.00111L22.7398 7.99505L22.7397 7.98902L22.7397 7.98303L22.7397 7.97708L22.7397 7.97116L22.7397 7.96528L22.7397 7.95944L22.7397 7.95364L22.7397 7.94787L22.7397 7.94214L22.7397 7.93644L22.7397 7.93078L22.7396 7.92516L22.7396 7.91957L22.7396 7.91402L22.7396 7.9085L22.7396 7.90302L22.7396 7.89757L22.7396 7.89216L22.7396 7.88679L22.7396 7.88144L22.7396 7.87614L22.7396 7.87086L22.7395 7.86562L22.7395 7.86042L22.7395 7.85524L22.7395 7.8501L22.7395 7.845L22.7395 7.83992L22.7395 7.83488L22.7395 7.82988L22.7395 7.8249L22.7395 7.81996L22.7395 7.81505L22.7395 7.81017L22.7395 7.80533L22.7394 7.80051L22.7394 7.79573L22.7394 7.79098L22.7394 7.78625L22.7394 7.78156L22.7394 7.77691L22.7394 7.77228L22.7394 7.76768L22.7394 7.76311L22.7394 7.75857L22.7394 7.75406L22.7394 7.74959L22.7394 7.74514L22.7393 7.74072L22.7393 7.73633L22.7393 7.73197L22.7393 7.72763L22.7393 7.72333L22.7393 7.71905L22.7393 7.71481L22.7393 7.71059L22.7393 7.7064L22.7393 7.70223L22.7393 7.6981L22.7393 7.69399L22.7393 7.68991L22.7393 7.68585L22.7393 7.68183L22.7392 7.67783L22.7392 7.67385L22.7392 7.6699L22.7392 7.66598L22.7392 7.66209L22.7392 7.65822L22.7392 7.65437L22.7392 7.65055L22.7392 7.64676L22.7392 7.64299L22.7392 7.63925L22.7392 7.63553L22.7392 7.63183L22.7392 7.62816L22.7392 7.62452L22.7392 7.6209L22.7392 7.6173L22.7391 7.61372L22.7391 7.61017L22.7391 7.60665L22.7391 7.60314L22.7391 7.59966L22.7391 7.5962L22.7391 7.59276L22.7391 7.58935L22.7391 7.58596L22.7391 7.58259L22.7391 7.57924L22.7391 7.57592L22.7391 7.57261L22.7391 7.56933L22.7391 7.56607L22.7391 7.56283L22.7391 7.55961L22.7391 7.55641L22.739 7.55323L22.739 7.55007L22.739 7.54693L22.739 7.54381L22.739 7.54071L22.739 7.53764L22.739 7.53458L22.739 7.53154L22.739 7.52851L22.739 7.52551L22.739 7.52253L22.739 7.51956L22.739 7.51661L22.739 7.51369L22.739 7.51077L22.739 7.50788L22.739 7.50501L22.739 7.50215L22.739 7.49931L22.739 7.49648L22.739 7.49368L22.7389 7.49089L22.7389 7.48811L22.7389 7.48536L22.7389 7.48261L22.7389 7.47989L22.7389 7.47718L22.7389 7.47449L22.7389 7.47181L22.7389 7.46915L22.7389 7.4665L22.7389 7.46387L22.7389 7.46125L22.7389 7.45865L22.7389 7.45606L22.7389 7.45348L22.7389 7.45092L22.7389 7.44838L22.7389 7.44584L22.7389 7.44332L22.7389 7.44082L22.7389 7.43833L22.7389 7.43585L22.7389 7.43338L22.7389 7.43093L22.7388 7.42848L22.7388 7.42605L22.7388 7.42364L22.7388 7.42123L22.7388 7.41884L22.7388 7.41646L22.7388 7.41409L22.7388 7.41173L22.7388 7.40938L22.7388 7.40704L22.7388 7.40471L22.7388 7.4024L22.7388 7.40009L22.7388 7.3978L22.7388 7.39551L22.7388 7.39323L22.7388 7.39097L22.7388 7.38871L22.7388 7.38646L22.7388 7.38423L22.7388 7.382L22.7388 7.37978L22.7388 7.37756L22.7388 7.37536L22.7388 7.37316L22.7388 7.37098L22.7388 7.3688L22.7387 7.36662L22.7387 7.36446L22.7387 7.3623L22.7387 7.36015L22.7387 7.35801L22.7387 7.35587L22.7387 7.35374L22.7387 7.35162L22.7387 7.3495L22.7387 7.34739L22.7387 7.34529L22.7387 7.34319L22.7387 7.3411L22.7387 7.33901L22.7387 7.33692L22.7387 7.33485L22.7387 7.33277L22.7387 7.3307L22.7387 7.32864L22.7387 7.32658L22.7387 7.32452L22.7387 7.32247L22.7387 7.32042L22.7387 7.31838L22.7387 7.31634L22.7387 7.3143L22.7387 7.31227L22.7387 7.31024L22.7387 7.30821L22.7387 7.30618L22.7386 7.30416L22.7386 7.30213L22.7386 7.30011L22.7386 7.2981L22.7386 7.29608L22.7386 7.29407L22.7386 7.29205L22.7386 7.29004L22.7386 7.28803L22.7386 7.28602L22.7386 7.28401L22.7386 7.282L22.7386 7.27999L22.7386 7.27798L22.7386 7.27597L22.7386 7.27396L22.7386 7.27195L22.7386 7.26994L22.7386 7.26792L22.7386 7.26591L22.7386 7.2639L22.7386 7.26188L22.7386 7.25986L22.7386 7.25784L22.7386 7.25582L22.7386 7.2538L22.7386 7.25178L22.7386 7.24975L22.7386 7.24772L22.7386 7.24568L22.7386 7.24365L22.7385 7.24161L22.7385 7.23957L22.7385 7.23752L22.7385 7.23547L22.7385 7.23342L22.7385 7.23136L22.7385 7.2293L22.7385 7.22723L22.7385 7.22516L22.7385 7.22309L22.7385 7.22101L22.7385 7.21892L22.7385 7.21683L22.7385 7.21473L22.7385 7.21263L22.7385 7.21052L22.7385 7.20841L22.7385 7.20629L22.7385 7.20417L22.7385 7.20203L22.7385 7.19989L22.7385 7.19775L22.7385 7.19559L22.7385 7.19343L22.7385 7.19127L22.7385 7.18909L22.7385 7.18691L22.7385 7.18472L22.7385 7.18252L22.7384 7.18031L22.7384 7.17809L22.7384 7.17587L22.7384 7.17363L22.7384 7.17139L22.7384 7.16914L22.7384 7.16688L22.7384 7.16461L22.7384 7.16233L22.7384 7.16004L22.7384 7.15774L22.7384 7.15543L22.7384 7.1531L22.7384 7.15077L22.7384 7.14843L22.7384 7.14608L22.7384 7.14371L22.7384 7.14134L22.7384 7.13895L22.7384 7.13655L22.7384 7.13414L22.7384 7.13172L22.7384 7.12928L22.7384 7.12683L22.7384 7.12437L22.7384 7.1219L22.7384 7.11942L22.7383 7.11692L22.7383 7.11441L22.7383 7.11188L22.7383 7.10934L22.7383 7.10679L22.7383 7.10422L22.7383 7.10164L22.7383 7.09905L22.7383 7.09644L22.7383 7.09381L22.7383 7.09117L22.7383 7.08852L22.7383 7.08585L22.7383 7.08316L22.7383 7.08046L22.7383 7.07775L22.7383 7.07501L22.7383 7.07226L22.7383 7.0695L22.7383 7.06672L22.7383 7.06392L22.7383 7.06111L22.7383 7.05827L22.7382 7.05543L22.7382 7.05256L22.7382 7.04968L22.7382 7.04678L22.7382 7.04386L22.7382 7.04092L22.7382 7.03796L22.7382 7.03499L22.7382 7.032L22.7382 7.02898L22.7382 7.02595L22.7382 7.02291L22.7382 7.01984L22.7382 7.01675L22.7382 7.01364L22.7382 7.01051L22.7382 7.00737L22.7382 7.0042L22.7382 7.00101L22.7382 6.9978L22.7382 6.99457L22.7381 6.99132L22.7381 6.98805L22.7381 6.98476L22.7381 6.98144L22.7381 6.97811L22.7381 6.97475L22.7381 6.97137L22.7381 6.96797L22.7381 6.96454L22.7381 6.9611L22.7381 6.95763L22.7381 6.95414L22.7381 6.95062L22.7381 6.94708L22.7381 6.94352L22.7381 6.93994L22.7381 6.93633L22.7381 6.93269L22.738 6.92904L22.738 6.92536L22.738 6.92165L22.738 6.91792L22.738 6.91416L22.738 6.91038L22.738 6.90658L22.738 6.90275L22.738 6.89889L22.738 6.89501L22.738 6.8911L22.738 6.88717L22.738 6.88321L22.738 6.87922L22.738 6.87521L22.738 6.87117L22.7379 6.8671L22.7379 6.86301L22.7379 6.85889L22.7379 6.85474L22.7379 6.85056L22.7379 6.84636L22.7379 6.84213L22.7379 6.83787L22.7379 6.83358L22.7379 6.82926L22.7379 6.82492L22.7379 6.82054L22.7379 6.81614L22.7379 6.8117L22.7379 6.80724L22.7378 6.80275L22.7378 6.79823L22.7378 6.79368L22.7378 6.78909L22.7378 6.78448L22.7378 6.77984L22.7378 6.77517L22.7378 6.77046L22.7378 6.76573L22.7378 6.76096L22.7378 6.75616L22.7378 6.75133L22.7378 6.74647L22.7377 6.74158L22.7377 6.73665L22.7377 6.7317L22.7377 6.72671L22.7377 6.72168L22.7377 6.71663L22.7377 6.71154L22.7377 6.70642L22.7377 6.70126L22.7377 6.69608L22.7377 6.69085L22.7377 6.6856L22.7376 6.68031L22.7376 6.67499L22.7376 6.66963L22.7376 6.66423L22.7376 6.65881L22.7376 6.65334L22.7376 6.64785L22.7376 6.64231L22.7376 6.63674L22.7376 6.63114L22.7376 6.6255L22.7376 6.61983L22.7375 6.61411L22.7375 6.60836L22.7375 6.60258L22.7375 6.59676L22.7375 6.5909L22.7375 6.585L22.7375 6.57907L22.7375 6.5731L22.7375 6.56709L22.7375 6.56105L22.7374 6.55496L22.7374 6.54884L22.7374 6.54268L22.7374 6.53648L22.7374 6.53025L22.7374 6.52397L22.7374 6.51766L22.7374 6.5113L22.7374 6.50491L22.7374 6.49848L22.7318 3.06116L22.7318 3.05122L22.7318 3.04132L22.7318 3.03148L22.7318 3.02169L22.7318 3.01195L22.7317 3.00227L22.7317 2.99263L22.7317 2.98305L22.7317 2.97352L22.7317 2.96404L22.7317 2.95461L22.7317 2.94523L22.7316 2.9359L22.7316 2.92662L22.7316 2.91739L22.7316 2.90821L22.7316 2.89908L22.7316 2.89L22.7316 2.88096L22.7315 2.87198L22.7315 2.86305L22.7315 2.85416L22.7315 2.84532L22.7315 2.83653L22.7315 2.82779L22.7315 2.81909L22.7314 2.81045L22.7314 2.80185L22.7314 2.79329L22.7314 2.78478L22.7314 2.77632L22.7314 2.76791L22.7314 2.75954L22.7313 2.75122L22.7313 2.74295L22.7313 2.73472L22.7313 2.72653L22.7313 2.71839L22.7313 2.7103L22.7313 2.70225L22.7313 2.69424L22.7312 2.68628L22.7312 2.67836L22.7312 2.67049L22.7312 2.66266L22.7312 2.65487L22.7312 2.64713L22.7312 2.63943L22.7312 2.63177L22.7311 2.62416L22.7311 2.61659L22.7311 2.60906L22.7311 2.60157L22.7311 2.59413L22.7311 2.58672L22.7311 2.57936L22.7311 2.57204L22.731 2.56476L22.731 2.55752L22.731 2.55032L22.731 2.54316L22.731 2.53605L22.731 2.52897L22.731 2.52193L22.731 2.51493L22.731 2.50797L22.7309 2.50105L22.7309 2.49417L22.7309 2.48733L22.7309 2.48053L22.7309 2.47376L22.7309 2.46704L22.7309 2.46035L22.7309 2.4537L22.7309 2.44708L22.7308 2.44051L22.7308 2.43397L22.7308 2.42747L22.7308 2.421L22.7308 2.41457L22.7308 2.40818L22.7308 2.40183L22.7308 2.39551L22.7308 2.38922L22.7308 2.38297L22.7307 2.37676L22.7307 2.37058L22.7307 2.36444L22.7307 2.35833L22.7307 2.35226L22.7307 2.34622L22.7307 2.34021L22.7307 2.33424L22.7307 2.3283L22.7307 2.3224L22.7307 2.32225M22.7421 9.47421L22.7307 2.32225M22.7307 2.32225L35.6673 13.8866L22.7674 25.1954L22.7673 25.1813L22.7673 25.1667L22.7673 25.1522L22.7673 25.1378L22.7672 25.1235L22.7672 25.1093L22.7672 25.0953L22.7672 25.0813L22.7672 25.0675L22.7671 25.0538L22.7671 25.0402L22.7671 25.0267L22.7671 25.0133L22.767 25.0001L22.767 24.9869L22.767 24.9739L22.767 24.9609L22.767 24.9481L22.7669 24.9354L22.7669 24.9228L22.7669 24.9103L22.7669 24.8979L22.7669 24.8856L22.7668 24.8734L22.7668 24.8613L22.7668 24.8494L22.7668 24.8375L22.7668 24.8257L22.7667 24.8141L22.7667 24.8025L22.7667 24.7911L22.7667 24.7797L22.7667 24.7685L22.7667 24.7573L22.7666 24.7463L22.7666 24.7354L22.7666 24.7245L22.7666 24.7138L22.7666 24.7032L22.7666 24.6926L22.7665 24.6822L22.7665 24.6718L22.7665 24.6616L22.7665 24.6515L22.7665 24.6414L22.7665 24.6315L22.7664 24.6216L22.7664 24.6118L22.7664 24.6022L22.7664 24.5926L22.7664 24.5831L22.7664 24.5737L22.7663 24.5645L22.7663 24.5553L22.7663 24.5462L22.7663 24.5371L22.7663 24.5282L22.7663 24.5194L22.7663 24.5107L22.7662 24.502L22.7662 24.4934L22.7662 24.485L22.7662 24.4766L22.7662 24.4683L22.7662 24.4601L22.7662 24.452L22.7662 24.4439L22.7661 24.436L22.7661 24.4281L22.7661 24.4204L22.7661 24.4127L22.7661 24.4051L22.7661 24.3976L22.7661 24.3901L22.7661 24.3828L22.766 24.3755L22.766 24.3683L22.766 24.3612L22.766 24.3542L22.766 24.3473L22.766 24.3404L22.766 24.3336L22.766 24.3269L22.766 24.3203L22.7659 24.3138L22.7659 24.3073L22.7659 24.3009L22.7659 24.2946L22.7659 24.2884L22.7659 24.2822L22.7659 24.2761L22.7659 24.2701L22.7659 24.2642L22.7659 24.2584L22.7658 24.2526L22.7658 24.2469L22.7658 24.2412L22.7658 24.2357L22.7658 24.2302L22.7658 24.2248L22.7658 24.2194L22.7658 24.2142L22.7658 24.209L22.7658 24.2038L22.7658 24.1988L22.7658 24.1938L22.7657 24.1888L22.7657 24.184L22.7657 24.1792L22.7657 24.1745L22.7657 24.1698L22.7657 24.1652L22.7657 24.1607L22.7657 24.1563L22.7657 24.1519L22.7657 24.1476L22.7657 24.1433L22.7657 24.1391L22.7657 24.135L22.7657 24.1309L22.7656 24.1269L22.7656 24.1229L22.7656 24.1191L22.7656 24.1152L22.7656 24.1115L22.7656 24.1078L22.7656 24.1041L22.7656 24.1005L22.7656 24.097L22.7656 24.0935L22.7656 24.0901L22.7656 24.0868L22.7656 24.0835L22.7656 24.0802L22.7656 24.0771L22.7656 24.0739L22.7656 24.0709L22.7655 24.0678L22.7655 24.0649L22.7655 24.062L22.7655 24.0591L22.7655 24.0563L22.7655 24.0536L22.7655 24.0509L22.7655 24.0482L22.7655 24.0456L22.7655 24.0431L22.7655 24.0406L22.7655 24.0381L22.7655 24.0357L22.7655 24.0334L22.7655 24.0311L22.7655 24.0288L22.7655 24.0266L22.7655 24.0245L22.7655 24.0224L22.7655 24.0203L22.7655 24.0183L22.7655 24.0163L22.7655 24.0144L22.7655 24.0125L22.7655 24.0106L22.7655 24.0088L22.7655 24.0071L22.7654 24.0054L22.7654 24.0037L22.7654 24.0021L22.7654 24.0005L22.7654 23.9989L22.7654 23.9974L22.7654 23.996L22.7654 23.9945L22.7654 23.9931L22.7654 23.9918L22.7654 23.9914M22.7307 2.32225L22.7654 23.9914M22.7654 23.9914L22.7654 23.9905L22.7654 23.9892L22.7654 23.988L22.7654 23.9868L22.7654 23.9856L22.7654 23.9845L22.7654 23.9834L22.7654 23.9823L22.7654 23.9813L22.7654 23.9803L22.7654 23.9793L22.7654 23.9784L22.7654 23.9775L22.7654 23.9766L22.7654 23.9758L22.7654 23.975L22.7654 23.9742L22.7654 23.9735L22.7654 23.9734M22.7654 23.9914L22.7654 23.9734M22.7654 23.9734L22.7654 23.9734L22.7654 23.9733L22.7654 23.9733M22.7654 23.9734L22.7654 23.9733M22.7654 23.9733L22.7654 23.9732M22.7654 23.9733L22.7654 23.9732M22.7654 23.9732L22.7654 23.9732M22.7654 23.9732L22.7654 23.9732M22.7654 23.9732L22.7654 23.9731M22.7654 23.9732L22.7654 23.9731M22.7654 23.9731L22.7654 23.973M22.7654 23.9731L22.7654 23.973M22.7654 23.973L22.7654 23.973M22.7654 23.973L22.7654 23.973M22.7654 23.973L22.7654 23.9729M22.7654 23.973L22.7654 23.9729M22.7654 23.9729L22.7654 23.9728M22.7654 23.9729L22.7654 23.9728M22.7654 23.9728L22.7654 23.9728M22.7654 23.9728L22.7654 23.9728M22.7654 23.9728L22.7654 23.9728M22.7654 23.9728L22.7654 23.9728M22.7654 23.9728L22.7654 23.9727M22.7654 23.9728L22.7654 23.9727M22.7654 23.9727L22.7654 23.9726M22.7654 23.9727L22.7654 23.9726M22.7654 23.9726L22.7654 23.9725M22.7654 23.9726L22.7654 23.9725M22.7654 23.9725L22.7654 23.9725M22.7654 23.9725L22.7654 23.9725M22.7654 23.9725L22.7654 23.9724M22.7654 23.9725L22.7654 23.9724M22.7654 23.9724L22.7654 23.9723M22.7654 23.9724L22.7654 23.9723M22.7654 23.9723L22.7654 23.9722M22.7654 23.9723L22.7654 23.9722M22.7654 23.9722L22.7654 23.9721M22.7654 23.9722L22.7654 23.9721M22.7654 23.9721L22.7654 23.9721M22.7654 23.9721L22.7654 23.9721M22.7654 23.9721L22.7654 23.972M22.7654 23.9721L22.7654 23.972M22.7654 23.972L22.7654 23.9719M22.7654 23.972L22.7654 23.9719M22.7654 23.9719L22.7654 23.9719M22.7654 23.9719L22.7654 23.9719M22.7654 23.9719L22.7654 23.9717M22.7654 23.9719L22.7654 23.9717M22.7654 23.9717L22.7654 23.9716M22.7654 23.9717L22.7654 23.9716M22.7654 23.9716L22.7654 23.9715M22.7654 23.9716L22.7654 23.9715M22.7654 23.9715L22.7654 23.9714M22.7654 23.9715L22.7654 23.9714M22.7654 23.9714L22.7654 23.9714M22.7654 23.9714L22.7654 23.9714M22.7654 23.9714L22.7654 23.9713M22.7654 23.9714L22.7654 23.9713M22.7654 23.9713L22.7654 23.9711M22.7654 23.9713L22.7654 23.9711M22.7654 23.9711L22.7654 23.9711M22.7654 23.9711L22.7654 23.9711M22.7654 23.9711L22.7654 23.9709M22.7654 23.9711L22.7654 23.9709M22.7654 23.9709L22.7654 23.9708M22.7654 23.9709L22.7654 23.9708M22.7654 23.9708L22.7654 23.9708M22.7654 23.9708L22.7654 23.9708M22.7654 23.9708L22.7654 23.9707M22.7654 23.9708L22.7654 23.9707M22.7654 23.9707L22.7654 23.9705M22.7654 23.9707L22.7654 23.9705M22.7654 23.9705L22.7654 23.9704M22.7654 23.9705L22.7654 23.9704M22.7654 23.9704L22.7654 23.9702M22.7654 23.9704L22.7654 23.9702M22.7654 23.9702L22.7654 23.9702M22.7654 23.9702L22.7654 23.9702M22.7654 23.9702L22.7654 23.9701M22.7654 23.9702L22.7654 23.9701M22.7654 23.9701L22.7654 23.97M22.7654 23.9701L22.7654 23.97M22.7654 23.97L22.7654 23.9698M22.7654 23.97L22.7654 23.9698M22.7654 23.9698L22.7654 23.9697M22.7654 23.9698L22.7654 23.9697M22.7654 23.9697L22.7654 23.9697M22.7654 23.9697L22.7654 23.9697M22.7654 23.9697L22.7654 23.9696M22.7654 23.9697L22.7654 23.9696M22.7654 23.9696L22.7654 23.9693M22.7654 23.9696L22.7654 23.9693M22.7654 23.9693L22.7654 23.9693M22.7654 23.9693L22.7654 23.9693M22.7654 23.9693L22.7654 23.9691M22.7654 23.9693L22.7654 23.9691M22.7654 23.9691L22.7654 23.9691M22.7654 23.9691L22.7654 23.9691M22.7654 23.9691L22.7654 23.9689M22.7654 23.9691L22.7654 23.9689M22.7654 23.9689L22.7654 23.9686M22.7654 23.9689L22.7654 23.9686M22.7654 23.9686L22.7654 23.9686M22.7654 23.9686L22.7654 23.9686M22.7654 23.9686L22.7654 23.9684M22.7654 23.9686L22.7654 23.9684M22.7654 23.9684L22.7654 23.9684M22.7654 23.9684L22.7654 23.9684M22.7654 23.9684L22.7654 23.9681M22.7654 23.9684L22.7654 23.9681M22.7654 23.9681L22.7654 23.9681M22.7654 23.9681L22.7654 23.9681M22.7654 23.9681L22.7654 23.9679M22.7654 23.9681L22.7654 23.9679M22.7654 23.9679L22.7654 23.9679M22.7654 23.9679L22.7654 23.9679M22.7654 23.9679L22.7654 23.9677M22.7654 23.9679L22.7654 23.9677M22.7654 23.9677L22.7654 23.9674M22.7654 23.9677L22.7654 23.9674M22.7654 23.9674L22.7654 23.9672M22.7654 23.9674L22.7654 23.9672M22.7654 23.9672L22.7654 23.9672M22.7654 23.9672L22.7654 23.9672M22.7654 23.9672L22.7654 23.9669M22.7654 23.9672L22.7654 23.9669M22.7654 23.9669L22.7654 23.9669M22.7654 23.9669L22.7654 23.9669M22.7654 23.9669L22.7654 23.9668M22.7654 23.9669L22.7654 23.9668M22.7654 23.9668L22.7654 23.9667M22.7654 23.9668L22.7654 23.9667M22.7654 23.9667L22.7654 23.9665M22.7654 23.9667L22.7654 23.9665M22.7654 23.9665L22.7654 23.9664M22.7654 23.9665L22.7654 23.9664M22.7654 23.9664L22.7654 23.9663M22.7654 23.9664L22.7654 23.9663M22.7654 23.9663L22.7654 23.9663M22.7654 23.9663L22.7654 23.9663M22.7654 23.9663L22.7654 23.966M22.7654 23.9663L22.7654 23.966M22.7654 23.966L22.7654 23.9658M22.7654 23.966L22.7654 23.9658M22.7654 23.9658L22.7654 23.9657M22.7654 23.9658L22.7654 23.9657M22.7654 23.9657L22.7654 23.9657M22.7654 23.9657L22.7654 23.9657M22.7654 23.9657L22.7654 23.9656M22.7654 23.9657L22.7654 23.9656M22.7654 23.9656L22.7654 23.9654M22.7654 23.9656L22.7654 23.9654M22.7654 23.9654L22.7654 23.9654M22.7654 23.9654L22.7654 23.9654M22.7654 23.9654L22.7654 23.9652M22.7654 23.9654L22.7654 23.9652M22.7654 23.9652L22.7654 23.9651M22.7654 23.9652L22.7654 23.9651M22.7654 23.9651L22.7654 23.9651M22.7654 23.9651L22.7654 23.9651M22.7654 23.9651L22.7654 23.965M22.7654 23.9651L22.7654 23.965M22.7654 23.965L22.7654 23.9648M22.7654 23.965L22.7654 23.9648M22.7654 23.9648L22.7654 23.9646M22.7654 23.9648L22.7654 23.9646M22.7654 23.9646L22.7654 23.9645M22.7654 23.9646L22.7654 23.9645M22.7654 23.9645L22.7654 23.9645M22.7654 23.9645L22.7654 23.9645M22.7654 23.9645L22.7654 23.9644M22.7654 23.9645L22.7654 23.9644M22.7654 23.9644L22.7654 23.9643M22.7654 23.9644L22.7654 23.9643M22.7654 23.9643L22.7654 23.9643M22.7654 23.9643L22.7654 23.9643M22.7654 23.9643L22.7654 23.9641M22.7654 23.9643L22.7654 23.9641M22.7654 23.9641L22.7654 23.9639M22.7654 23.9641L22.7654 23.9639M22.7654 23.9639L22.7654 23.9639M22.7654 23.9639L22.7654 23.9639M22.7654 23.9639L22.7654 23.9638M22.7654 23.9639L22.7654 23.9638M22.7654 23.9638L22.7654 23.9637M22.7654 23.9638L22.7654 23.9637M22.7654 23.9637L22.7654 23.9637M22.7654 23.9637L22.7654 23.9637M22.7654 23.9637L22.7654 23.9636M22.7654 23.9637L22.7654 23.9636M22.7654 23.9636L22.7654 23.9635M22.7654 23.9636L22.7654 23.9635M22.7654 23.9635L22.7654 23.9634M22.7654 23.9635L22.7654 23.9634M22.7654 23.9634L22.7654 23.9633M22.7654 23.9634L22.7654 23.9633M22.7654 23.9633L22.7654 23.9633M22.7654 23.9633L22.7654 23.9633M22.7654 23.9633L22.7654 23.9632M22.7654 23.9633L22.7654 23.9632M22.7654 23.9632L22.7654 23.9632M22.7654 23.9632L22.7654 23.9632M22.7654 23.9632L22.7654 23.9632M22.7654 23.9632L22.7654 23.9632M22.7654 23.9632L22.7654 23.9631M22.7654 23.9632L22.7654 23.9631M22.7654 23.9631L22.7654 23.9631M22.7654 23.9631L22.7654 23.9631M22.7654 23.9631L22.7654 23.9631M22.7654 23.9631L22.7654 23.9631M22.7654 23.9631L22.7654 23.963M22.7654 23.9631L22.7654 23.963M22.7654 23.963L22.7654 23.963M22.7654 23.963L22.7654 23.963M22.7654 23.963L22.7654 23.963M22.7654 23.963L22.7654 23.963M22.7654 23.963L22.7654 23.9624M22.7654 23.963L22.7654 23.9624M22.7654 23.9624L22.7654 23.9616M22.7654 23.9624L22.7654 23.9616M22.7654 23.9616L22.7654 23.9608M22.7654 23.9616L22.7654 23.9608M22.7654 23.9608L22.7654 23.96M22.7654 23.9608L22.7654 23.96M22.7654 23.96L22.7654 23.9591M22.7654 23.96L22.7654 23.9591M22.7654 23.9591L22.7654 23.9583M22.7654 23.9591L22.7654 23.9583M22.7654 23.9583L22.7654 23.9573M22.7654 23.9583L22.7654 23.9573M22.7654 23.9573L22.7654 23.9564M22.7654 23.9573L22.7654 23.9564M22.7654 23.9564L22.7654 23.9554M22.7654 23.9564L22.7654 23.9554M22.7654 23.9554L22.7654 23.9544M22.7654 23.9554L22.7654 23.9544M22.7654 23.9544L22.7654 23.9533M22.7654 23.9544L22.7654 23.9533M22.7654 23.9533L22.7654 23.9522M22.7654 23.9533L22.7654 23.9522M22.7654 23.9522L22.7654 23.9511M22.7654 23.9522L22.7654 23.9511M22.7654 23.9511L22.7654 23.95M22.7654 23.9511L22.7654 23.95M22.7654 23.95L22.7654 23.9488M22.7654 23.95L22.7654 23.9488M22.7654 23.9488L22.7654 23.9476M22.7654 23.9488L22.7654 23.9476M22.7654 23.9476L22.7654 23.9463M22.7654 23.9476L22.7654 23.9463M22.7654 23.9463L22.7654 23.945M22.7654 23.9463L22.7654 23.945M22.7654 23.945L22.7653 23.9436M22.7654 23.945L22.7653 23.9436M22.7653 23.9436L22.7653 23.9423M22.7653 23.9436L22.7653 23.9423M22.7653 23.9423L22.7653 23.9409M22.7653 23.9423L22.7653 23.9409M22.7653 23.9409L22.7653 23.9394M22.7653 23.9409L22.7653 23.9394M22.7653 23.9394L22.7653 23.9379M22.7653 23.9394L22.7653 23.9379M22.7653 23.9379L22.7653 23.9364M22.7653 23.9379L22.7653 23.9364M22.7653 23.9364L22.7653 23.9348M22.7653 23.9364L22.7653 23.9348M22.7653 23.9348L22.7653 23.9332M22.7653 23.9348L22.7653 23.9332M22.7653 23.9332L22.7653 23.9315M22.7653 23.9332L22.7653 23.9315M22.7653 23.9315L22.7653 23.9298M22.7653 23.9315L22.7653 23.9298M22.7653 23.9298L22.7653 23.9281M22.7653 23.9298L22.7653 23.9281M22.7653 23.9281L22.7653 23.9263M22.7653 23.9281L22.7653 23.9263M22.7653 23.9263L22.7653 23.9245M22.7653 23.9263L22.7653 23.9245M22.7653 23.9245L22.7653 23.9226M22.7653 23.9245L22.7653 23.9226M22.7653 23.9226L22.7653 23.9207M22.7653 23.9226L22.7653 23.9207M22.7653 23.9207L22.7653 23.9187M22.7653 23.9207L22.7653 23.9187M22.7653 23.9187L22.7653 23.9167M22.7653 23.9187L22.7653 23.9167M22.7653 23.9167L22.7653 23.9147M22.7653 23.9167L22.7653 23.9147M22.7653 23.9147L22.7653 23.9126M22.7653 23.9147L22.7653 23.9126M22.7653 23.9126L22.7653 23.9104M22.7653 23.9126L22.7653 23.9104M22.7653 23.9104L22.7653 23.9082M22.7653 23.9104L22.7653 23.9082M22.7653 23.9082L22.7653 23.906M22.7653 23.9082L22.7653 23.906M22.7653 23.906L22.7653 23.9037M22.7653 23.906L22.7653 23.9037M22.7653 23.9037L22.7653 23.9014M22.7653 23.9037L22.7653 23.9014M22.7653 23.9014L22.7653 23.899M22.7653 23.9014L22.7653 23.899M22.7653 23.899L22.7653 23.8966M22.7653 23.899L22.7653 23.8966M22.7653 23.8966L22.7653 23.8941M22.7653 23.8966L22.7653 23.8941M22.7653 23.8941L22.7653 23.8916M22.7653 23.8941L22.7653 23.8916M22.7653 23.8916L22.7653 23.889M22.7653 23.8916L22.7653 23.889M22.7653 23.889L22.7653 23.8864M22.7653 23.889L22.7653 23.8864M22.7653 23.8864L22.7653 23.8837M22.7653 23.8864L22.7653 23.8837M22.7653 23.8837L22.7652 23.8809M22.7653 23.8837L22.7652 23.8809M22.7652 23.8809L22.7652 23.8782M22.7652 23.8809L22.7652 23.8782M22.7652 23.8782L22.7652 23.8753M22.7652 23.8782L22.7652 23.8753M22.7652 23.8753L22.7652 23.8724M22.7652 23.8753L22.7652 23.8724M22.7652 23.8724L22.7652 23.8695M22.7652 23.8724L22.7652 23.8695M22.7652 23.8695L22.7652 23.8665M22.7652 23.8695L22.7652 23.8665M22.7652 23.8665L22.7652 23.8634M22.7652 23.8665L22.7652 23.8634M22.7652 23.8634L22.7652 23.8603M22.7652 23.8634L22.7652 23.8603M22.7652 23.8603L22.7652 23.8572M22.7652 23.8603L22.7652 23.8572M22.7652 23.8572L22.7652 23.8539M22.7652 23.8572L22.7652 23.8539M22.7652 23.8539L22.7652 23.8507M22.7652 23.8539L22.7652 23.8507M22.7652 23.8507L22.7652 23.8473M22.7652 23.8507L22.7652 23.8473M22.7652 23.8473L22.7652 23.8439M22.7652 23.8473L22.7652 23.8439M22.7652 23.8439L22.7652 23.8405M22.7652 23.8439L22.7652 23.8405M22.7652 23.8405L22.7652 23.837M22.7652 23.8405L22.7652 23.837M22.7652 23.837L22.7652 23.8334M22.7652 23.837L22.7652 23.8334M22.7652 23.8334L22.7652 23.8298M22.7652 23.8334L22.7652 23.8298M22.7652 23.8298L22.7652 23.8261M22.7652 23.8298L22.7652 23.8261M22.7652 23.8261L22.7652 23.8224M22.7652 23.8261L22.7652 23.8224M22.7652 23.8224L22.7651 23.8186M22.7652 23.8224L22.7651 23.8186M22.7651 23.8186L22.7651 23.8147M22.7651 23.8186L22.7651 23.8147M22.7651 23.8147L22.7651 23.8108M22.7651 23.8147L22.7651 23.8108M22.7651 23.8108L22.7651 23.8068M22.7651 23.8108L22.7651 23.8068M22.7651 23.8068L22.7651 23.8027M22.7651 23.8068L22.7651 23.8027M22.7651 23.8027L22.7651 23.7986M22.7651 23.8027L22.7651 23.7986M22.7651 23.7986L22.7651 23.7944M22.7651 23.7986L22.7651 23.7944M22.7651 23.7944L22.7651 23.7902M22.7651 23.7944L22.7651 23.7902M22.7651 23.7902L22.7651 23.7859M22.7651 23.7902L22.7651 23.7859M22.7651 23.7859L22.7651 23.7815M22.7651 23.7859L22.7651 23.7815M22.7651 23.7815L22.7651 23.7771M22.7651 23.7815L22.7651 23.7771M22.7651 23.7771L22.7651 23.7726M22.7651 23.7771L22.7651 23.7726M22.7651 23.7726L22.7651 23.768L22.7651 23.7726Z" fill="#FF0000" stroke="white" stroke-width="1.81333"/>
</svg>
